<?xml version="1.0" encoding="UTF-8" standalone="no"?>
<!DOCTYPE svg PUBLIC "-//W3C//DTD SVG 1.1//EN"
 "http://www.w3.org/Graphics/SVG/1.1/DTD/svg11.dtd">
<!-- Generated by graphviz version 2.43.20190912.0211 (20190912.0211)
 -->
<!-- Title: %3 Pages: 1 -->
<svg width="320pt" height="188pt"
 viewBox="0.00 0.00 320.00 188.00" xmlns="http://www.w3.org/2000/svg" xmlns:xlink="http://www.w3.org/1999/xlink">
<g id="graph0" class="graph" transform="scale(1 1) rotate(0) translate(4 184)">
<title>%3</title>
<polygon fill="white" stroke="transparent" points="-4,4 -4,-184 316,-184 316,4 -4,4"/>
<!-- 0 -->
<g id="node1" class="node">
<title>0</title>
<ellipse fill="none" stroke="black" cx="64" cy="-162" rx="18" ry="18"/>
<text text-anchor="middle" x="64" y="-158.3" font-family="Times,serif" font-size="14.00">0</text>
</g>
<!-- 10 -->
<!-- 4 -->
<g id="node6" class="node">
<title>4</title>
<ellipse fill="none" stroke="black" cx="202" cy="-90" rx="18" ry="18"/>
<text text-anchor="middle" x="202" y="-86.3" font-family="Times,serif" font-size="14.00">4</text>
</g>
<!-- 10&#45;&#45;4 -->
<!-- 9 -->
<!-- 10&#45;&#45;9 -->
<!-- 3 -->
<g id="node3" class="node">
<title>3</title>
<ellipse fill="none" stroke="black" cx="248" cy="-162" rx="18" ry="18"/>
<text text-anchor="middle" x="248" y="-158.3" font-family="Times,serif" font-size="14.00">3</text>
</g>
<!-- 8 -->
<!-- 3&#45;&#45;8 -->
<!-- 5 -->
<g id="node10" class="node">
<title>5</title>
<ellipse fill="none" stroke="black" cx="248" cy="-18" rx="18" ry="18"/>
<text text-anchor="middle" x="248" y="-14.3" font-family="Times,serif" font-size="14.00">5</text>
</g>
<!-- 3&#45;&#45;5 -->
<!-- 6 -->
<!-- 6&#45;&#45;0 -->
<!-- 2 -->
<g id="node5" class="node">
<title>2</title>
<ellipse fill="none" stroke="black" cx="110" cy="-90" rx="18" ry="18"/>
<text text-anchor="middle" x="110" y="-86.3" font-family="Times,serif" font-size="14.00">2</text>
</g>
<!-- 6&#45;&#45;2 -->
<!-- 1 -->
<g id="node8" class="node">
<title>1</title>
<ellipse fill="none" stroke="black" cx="64" cy="-18" rx="18" ry="18"/>
<text text-anchor="middle" x="64" y="-14.3" font-family="Times,serif" font-size="14.00">1</text>
</g>
<!-- 6&#45;&#45;1 -->
<!-- 2&#45;&#45;0 -->
<g id="edge10" class="edge">
<title>2&#45;&#45;0</title>
<path fill="none" stroke="black" d="M100.48,-105.49C92.59,-117.49 81.43,-134.48 73.53,-146.5"/>
</g>
<!-- 2&#45;&#45;10 -->
<!-- 2&#45;&#45;4 -->
<g id="edge11" class="edge">
<title>2&#45;&#45;4</title>
<path fill="none" stroke="black" d="M128.33,-90C146.84,-90 165.36,-90 183.87,-90"/>
</g>
<!-- 2&#45;&#45;1 -->
<g id="edge9" class="edge">
<title>2&#45;&#45;1</title>
<path fill="none" stroke="black" d="M100.47,-74.5C92.57,-62.48 81.41,-45.49 73.52,-33.49"/>
</g>
<!-- 2&#45;&#45;9 -->
<!-- 4&#45;&#45;3 -->
<g id="edge13" class="edge">
<title>4&#45;&#45;3</title>
<path fill="none" stroke="black" d="M211.52,-105.49C219.41,-117.49 230.57,-134.48 238.47,-146.5"/>
</g>
<!-- 4&#45;&#45;8 -->
<!-- 4&#45;&#45;5 -->
<g id="edge14" class="edge">
<title>4&#45;&#45;5</title>
<path fill="none" stroke="black" d="M211.53,-74.5C219.43,-62.48 230.59,-45.49 238.48,-33.49"/>
</g>
<!-- 8&#45;&#45;5 -->
<!-- 1&#45;&#45;0 -->
<g id="edge12" class="edge">
<title>1&#45;&#45;0</title>
<path fill="none" stroke="black" d="M64,-36.19C64,-63.52 64,-116.58 64,-143.87"/>
</g>
<!-- 9&#45;&#45;4 -->
</g>
</svg>
