<?xml version="1.0" encoding="UTF-8" standalone="no"?>
<!DOCTYPE svg PUBLIC "-//W3C//DTD SVG 1.1//EN"
 "http://www.w3.org/Graphics/SVG/1.1/DTD/svg11.dtd">
<!-- Generated by graphviz version 2.43.20190912.0211 (20190912.0211)
 -->
<!-- Title: %3 Pages: 1 -->
<svg width="179pt" height="260pt"
 viewBox="0.00 0.00 179.00 260.00" xmlns="http://www.w3.org/2000/svg" xmlns:xlink="http://www.w3.org/1999/xlink">
<g id="graph0" class="graph" transform="scale(1 1) rotate(0) translate(4 256)">
<title>%3</title>
<polygon fill="white" stroke="transparent" points="-4,4 -4,-256 175,-256 175,4 -4,4"/>
<!-- 0 -->
<g id="node1" class="node">
<title>0</title>
<ellipse fill="none" stroke="black" cx="99" cy="-234" rx="18" ry="18"/>
<text text-anchor="middle" x="99" y="-230.3" font-family="Times,serif" font-size="14.00">0</text>
</g>
<!-- 1 -->
<g id="node2" class="node">
<title>1</title>
<ellipse fill="none" stroke="black" cx="45" cy="-162" rx="18" ry="18"/>
<text text-anchor="middle" x="45" y="-158.3" font-family="Times,serif" font-size="14.00">1</text>
</g>
<!-- 0&#45;&#45;1 -->
<g id="edge1" class="edge">
<title>0&#45;&#45;1</title>
<path fill="none" stroke="black" d="M88.33,-219.17C78.86,-206.9 65.11,-189.06 55.65,-176.8"/>
</g>
<!-- 7 -->
<!-- 0&#45;&#45;7 -->
<!-- 2 -->
<g id="node4" class="node">
<title>2</title>
<ellipse fill="none" stroke="black" cx="153" cy="-162" rx="18" ry="18"/>
<text text-anchor="middle" x="153" y="-158.3" font-family="Times,serif" font-size="14.00">2</text>
</g>
<!-- 0&#45;&#45;2 -->
<g id="edge8" class="edge">
<title>0&#45;&#45;2</title>
<path fill="none" stroke="black" d="M109.67,-219.17C119.14,-206.9 132.89,-189.06 142.35,-176.8"/>
</g>
<!-- 3 -->
<g id="node5" class="node">
<title>3</title>
<ellipse fill="none" stroke="black" cx="45" cy="-90" rx="18" ry="18"/>
<text text-anchor="middle" x="45" y="-86.3" font-family="Times,serif" font-size="14.00">3</text>
</g>
<!-- 1&#45;&#45;3 -->
<g id="edge3" class="edge">
<title>1&#45;&#45;3</title>
<path fill="none" stroke="black" d="M45,-143.7C45,-132.85 45,-118.92 45,-108.1"/>
</g>
<!-- 8 -->
<!-- 1&#45;&#45;8 -->
<!-- 6 -->
<g id="node6" class="node">
<title>6</title>
<ellipse fill="none" stroke="black" cx="153" cy="-90" rx="18" ry="18"/>
<text text-anchor="middle" x="153" y="-86.3" font-family="Times,serif" font-size="14.00">6</text>
</g>
<!-- 2&#45;&#45;6 -->
<g id="edge9" class="edge">
<title>2&#45;&#45;6</title>
<path fill="none" stroke="black" d="M153,-143.7C153,-132.85 153,-118.92 153,-108.1"/>
</g>
<!-- 2&#45;&#45;8 -->
<!-- 4 -->
<g id="node8" class="node">
<title>4</title>
<ellipse fill="none" stroke="black" cx="18" cy="-18" rx="18" ry="18"/>
<text text-anchor="middle" x="18" y="-14.3" font-family="Times,serif" font-size="14.00">4</text>
</g>
<!-- 3&#45;&#45;4 -->
<g id="edge6" class="edge">
<title>3&#45;&#45;4</title>
<path fill="none" stroke="black" d="M38.74,-72.76C34.38,-61.46 28.58,-46.44 24.23,-35.15"/>
</g>
<!-- 5 -->
<g id="node9" class="node">
<title>5</title>
<ellipse fill="none" stroke="black" cx="72" cy="-18" rx="18" ry="18"/>
<text text-anchor="middle" x="72" y="-14.3" font-family="Times,serif" font-size="14.00">5</text>
</g>
<!-- 3&#45;&#45;5 -->
<g id="edge7" class="edge">
<title>3&#45;&#45;5</title>
<path fill="none" stroke="black" d="M51.26,-72.76C55.62,-61.46 61.42,-46.44 65.77,-35.15"/>
</g>
</g>
</svg>
